# xmcd
#
# Track frame offsets: 
#        150
#        15243
#        35420
#        47628
#        60270
#        71784
#        85720
#        106841
#        118988
#        130060
#        149541
#        171224
#        184288
#
# Disc length: 2674 seconds
#
# Revision: 0
# Processed by: cddbd v1.5.1PL2 Copyright (c) Steve Scherf et al.
# Submitted via: ExactAudioCopy v0.95b4
#
DISCID=ae0a700d
DTITLE=Levada Louca - No São João Do Nordeste
DYEAR=2005
DGENRE=Brasil
TTITLE0=Me Dá Um Beijo
TTITLE1=Pot Pourri
TTITLE2=Fogaréu
TTITLE3=Ou Vai Ou Racha (Forró Da Levada)
TTITLE4=Pedras Que Cantam
TTITLE5=Deslizes
TTITLE6=Pot Pourri (Cometa Mambembe - Sementes - Frevo Mulher)
TTITLE7=Mirando O Luar
TTITLE8=Pode Correr, Correr
TTITLE9=Pot Pourri (Aproveita Gente - Olha Pro Céu - São João Na Roça)
TTITLE10=Pot Pourri (Toma Conta De Mim - Quem De Nós Dois)
TTITLE11=Crina Negra
TTITLE12=Pot Pourri (Pegar Fogo - Rancheira)
EXTD=
EXTT0=
EXTT1=
EXTT2=
EXTT3=
EXTT4=
EXTT5=
EXTT6=
EXTT7=
EXTT8=
EXTT9=
EXTT10=
EXTT11=
EXTT12=
PLAYORDER=
